# xmcd CD database file
#
# Track frame offsets:
#	150
#	42424
#	84765
#	135540
#	210213
#	263682
#
# Disc length: 4141 seconds
#
# Revision: 0
# Processed by: cddbd v1.5.2PL0 Copyright (c) Steve Scherf et al.
# Submitted via: CDex 1.51
#
DISCID=41102b06
DTITLE=katie hope - pilates (ambients)
DYEAR=2002
DGENRE=New Age
TTITLE0=Beginnings
TTITLE1=Finger Dancer
TTITLE2=Breathe
TTITLE3=Spirale
TTITLE4=One The Shores Of Forever
TTITLE5=Touch The Sun
EXTD=YEAR: 2002
EXTT0=
EXTT1=
EXTT2=
EXTT3=
EXTT4=
EXTT5=
PLAYORDER=
